<svg xmlns="http://www.w3.org/2000/svg" width="122" height="107" viewBox="0 0 122 107" fill="none">
  <rect width="122" height="107" fill="url(#paint0_linear_451_8)"/>
  <g filter="url(#filter0_d_451_8)">
    <path d="M79.4809 81.9995C76.7353 81.9995 72.8786 81.0066 67.1034 77.7807C60.0805 73.8431 54.6485 70.2079 47.6636 63.2427C40.9291 56.5137 37.6519 52.1571 33.0651 43.8123C27.8835 34.3903 28.7668 29.4515 29.7542 27.3407C30.93 24.8178 32.6657 23.3089 34.9091 21.8112C36.1834 20.9765 37.5318 20.261 38.9374 19.6737C39.0781 19.6132 39.2089 19.5556 39.3256 19.5035C40.0219 19.1899 41.0768 18.716 42.413 19.2223C43.3047 19.557 44.1008 20.2418 45.347 21.4723C47.9027 23.9923 51.3951 29.6048 52.6835 32.361C53.5486 34.2187 54.121 35.445 54.1224 36.8203C54.1224 38.4305 53.3123 39.6722 52.3291 41.0124C52.1448 41.2641 51.962 41.5046 51.7848 41.738C50.7144 43.1443 50.4795 43.5507 50.6342 44.2763C50.9479 45.7346 53.2869 50.0758 57.131 53.9107C60.9751 57.7456 65.1919 59.9365 66.6561 60.2487C67.4128 60.4104 67.8277 60.1658 69.2793 59.0576C69.4874 58.8987 69.7012 58.7342 69.9249 58.5696C71.4242 57.4545 72.6085 56.6656 74.1811 56.6656H74.1895C75.5581 56.6656 76.7297 57.259 78.6707 58.2378C81.2025 59.5147 86.9848 62.9614 89.5208 65.5194C90.7543 66.7626 91.4421 67.5557 91.7782 68.4459C92.2846 69.786 91.8078 70.8365 91.4969 71.5396C91.4449 71.6564 91.3872 71.7843 91.3267 71.9264C90.7347 73.3292 90.0148 74.6746 89.1761 75.9455C87.681 78.1814 86.1662 79.9126 83.6372 81.0896C82.3386 81.7037 80.9174 82.0148 79.4809 81.9995Z" fill="white"/>
    <path d="M69.9249 58.5696C69.7348 58.7095 69.5518 58.8493 69.3734 58.9857C69.3419 59.0098 69.3105 59.0338 69.2793 59.0576C67.8277 60.1658 67.4128 60.4104 66.6561 60.2487L69.9249 58.5696ZM69.9249 58.5696C71.4242 57.4545 72.6085 56.6656 74.1811 56.6656H74.1895C75.5528 56.6656 76.7208 57.2545 78.6486 58.2266L78.6707 58.2378L69.9249 58.5696ZM79.4862 81.4995V81.4995H79.4809C76.8551 81.4995 73.0852 80.5493 67.3473 77.3442C60.3543 73.4234 54.9619 69.8142 48.017 62.889C41.3158 56.1933 38.0672 51.8746 33.5033 43.5714L33.5033 43.5713C28.3673 34.2326 29.3107 29.4687 30.2071 27.5525L30.2073 27.5519C31.3273 25.149 32.9764 23.7029 35.1849 22.2283C36.433 21.4109 37.7536 20.7102 39.1302 20.1351L39.1302 20.1351L39.1349 20.1331C39.2782 20.0715 39.4111 20.0129 39.5292 19.9602L39.531 19.9594C40.2223 19.6481 41.1061 19.2618 42.2358 19.6899L42.2373 19.6904C43.0153 19.9824 43.7414 20.5896 44.9957 21.8281L44.996 21.8283C46.2353 23.0504 47.7241 25.0477 49.0725 27.1024C50.4182 29.153 51.5997 31.2233 52.2304 32.5725C53.1092 34.4598 53.6212 35.5783 53.6224 36.8208C53.6223 38.2514 52.9108 39.3742 51.9259 40.7166L51.9256 40.7171C51.7511 40.9555 51.5776 41.184 51.4061 41.4098L51.3869 41.4352C50.8601 42.1273 50.4978 42.6242 50.2976 43.0496C50.0749 43.5231 50.0466 43.9182 50.1452 44.3806L50.1454 44.3815C50.3218 45.2015 51.0259 46.7136 52.1361 48.4695C53.2578 50.2437 54.8263 52.3177 56.7779 54.2647C58.7298 56.212 60.7758 57.7416 62.5223 58.8255C64.2526 59.8995 65.7325 60.563 66.5516 60.7377C67.029 60.8397 67.4346 60.8112 67.9208 60.5814C68.3578 60.3749 68.8686 60.0002 69.5827 59.455C69.6144 59.4309 69.646 59.4066 69.6777 59.3824C69.8562 59.246 70.0351 59.1093 70.2212 58.9724L70.2233 58.9708C71.7316 57.849 72.7932 57.1656 74.1811 57.1656H74.1895C75.4146 57.1656 76.4712 57.6886 78.4456 58.6842C79.6931 59.3134 81.7562 60.4851 83.8231 61.8183C85.8972 63.1562 87.9381 64.6332 89.1657 65.8714L89.1658 65.8716C90.4079 67.1233 91.0174 67.8463 91.3105 68.6225L91.3105 68.6226C91.7386 69.7557 91.3507 70.6338 91.0402 71.3363C90.9891 71.4508 90.9292 71.5836 90.8667 71.7305L90.8661 71.7319C90.2862 73.106 89.5811 74.4239 88.7597 75.6688C87.2882 77.8691 85.8361 79.5146 83.4262 80.6363L83.4234 80.6376C82.1933 81.2193 80.847 81.5141 79.4862 81.4995Z" stroke="#083454"/>
  </g>
  <defs>
    <filter id="filter0_d_451_8" x="25" y="19" width="71" height="71" filterUnits="userSpaceOnUse" color-interpolation-filters="sRGB">
      <feFlood flood-opacity="0" result="BackgroundImageFix"/>
      <feColorMatrix in="SourceAlpha" type="matrix" values="0 0 0 0 0 0 0 0 0 0 0 0 0 0 0 0 0 0 127 0" result="hardAlpha"/>
      <feOffset dy="4"/>
      <feGaussianBlur stdDeviation="2"/>
      <feComposite in2="hardAlpha" operator="out"/>
      <feColorMatrix type="matrix" values="0 0 0 0 0 0 0 0 0 0 0 0 0 0 0 0 0 0 0.25 0"/>
      <feBlend mode="normal" in2="BackgroundImageFix" result="effect1_dropShadow_451_8"/>
      <feBlend mode="normal" in="SourceGraphic" in2="effect1_dropShadow_451_8" result="shape"/>
    </filter>
    <linearGradient id="paint0_linear_451_8" x1="61" y1="0" x2="61" y2="107" gradientUnits="userSpaceOnUse">
      <stop offset="0.421875" stop-color="#38FFF9"/>
      <stop offset="0.421875" stop-color="#38FFF9"/>
      <stop offset="1" stop-color="white" stop-opacity="0.87"/>
    </linearGradient>
  </defs>
</svg>