<svg width="35" height="29" viewBox="0 0 79 59" fill="none" xmlns="http://www.w3.org/2000/svg">
<path d="M38.4726 33.2782C36.1553 33.2782 34.2593 31.3822 34.2593 29.0649C34.2593 26.7476 36.1553 24.8516 38.4726 24.8516C40.7899 24.8516 42.6859 26.7476 42.6859 29.0649C42.6859 31.3822 40.7899 33.2782 38.4726 33.2782Z" fill="#38FFF9"/>
<path d="M39.4997 47.8667C44.3886 47.8667 49.0772 45.9246 52.5341 42.4677C55.991 39.0107 57.9331 34.3222 57.9331 29.4333C57.9331 24.5445 55.991 19.8559 52.5341 16.399C49.0772 12.9421 44.3886 11 39.4997 11C34.6109 11 29.9223 12.9421 26.4654 16.399C23.0085 19.8559 21.0664 24.5445 21.0664 29.4333C21.0664 34.3222 23.0085 39.0107 26.4654 42.4677C29.9223 45.9246 34.6109 47.8667 39.4997 47.8667ZM39.4997 17.5833C45.9514 17.6623 51.1917 23.0607 51.1917 29.565V31.698C51.1917 34.0417 49.2694 35.964 46.9257 35.964C45.3194 35.964 43.9237 35.0687 43.1864 33.752C41.9751 34.9633 40.2897 35.727 38.4464 35.727C34.7597 35.727 31.7577 32.725 31.7577 29.0383C31.7577 25.3517 34.7597 22.3497 38.4464 22.3497C40.0527 22.3497 41.5011 22.929 42.6597 23.8507V23.6137C42.6597 22.929 43.2654 22.376 43.9501 22.376C44.6347 22.376 45.1877 22.929 45.1877 23.6137V31.7243C45.1877 32.1923 45.3736 32.641 45.7045 32.9719C46.0354 33.3028 46.4841 33.4887 46.9521 33.4887C47.42 33.4887 47.8688 33.3028 48.1996 32.9719C48.5305 32.641 48.7164 32.1923 48.7164 31.7243V29.5913C48.7164 24.4037 44.5557 20.1377 39.4734 20.0587C36.9454 20.0587 34.5491 21.0067 32.7584 22.771C30.9677 24.5353 29.9671 26.9053 29.9671 29.4333C29.9671 34.5947 34.1804 38.808 39.3417 38.808C39.67 38.808 39.9848 38.9384 40.2169 39.1705C40.449 39.4026 40.5794 39.7174 40.5794 40.0457C40.5794 40.3739 40.449 40.6887 40.2169 40.9208C39.9848 41.1529 39.67 41.2833 39.3417 41.2833C32.8111 41.2833 27.4917 35.964 27.4917 29.4333C27.4917 26.247 28.7294 23.245 31.0204 21.0067C33.2851 18.742 36.3134 17.5307 39.4997 17.5833Z" fill="#38FFF9"/>
<path d="M5.91372e-06 5.7598C5.91372e-06 2.83153 2.36474 0.466797 5.29301 0.466797H73.7333C76.6537 0.466797 79 2.84733 79 5.7598V53.1335C79 56.0538 76.6195 58.4001 73.707 58.4001H5.29301C4.59763 58.4012 3.90888 58.265 3.26623 57.9993C2.62359 57.7337 2.03968 57.3439 1.54797 56.8522C1.05626 56.3605 0.666423 55.7765 0.400793 55.1339C0.135163 54.4913 -0.0010343 53.8025 5.91372e-06 53.1071V5.7598ZM5.26667 5.74663V7.0554L21.9883 17.7099C21 19.1806 20.2019 20.7706 19.6131 22.442L5.26667 13.299V47.0241L20.066 37.5942C20.7491 39.2197 21.6338 40.7529 22.6993 42.1577L5.47734 53.1335H73.5622L56.2954 42.1446C57.3613 40.7381 58.246 39.2031 58.9287 37.5757L73.7333 47.0004V13.3175L59.3764 22.4551C58.7893 20.7832 57.993 19.1923 57.0064 17.7204L73.7333 7.0791V5.74136L73.7228 5.73346H5.27984L5.27194 5.73873L5.26931 5.744L5.26667 5.74663Z" fill="#38FFF9"/>
</svg>
