<svg width="30" height="30" viewBox="0 0 64 64" fill="none" xmlns="http://www.w3.org/2000/svg">
<path id="Vector" d="M59.6184 0H3.46985C2.54959 0 1.66702 0.365573 1.0163 1.0163C0.365573 1.66702 0 2.54959 0 3.46985V59.6184C0 60.5386 0.365573 61.4212 1.0163 62.0719C1.66702 62.7227 2.54959 63.0882 3.46985 63.0882H33.6891V38.6415H25.4876V29.1783H33.6891V22.0809C33.5192 20.4146 33.716 18.7313 34.2655 17.1491C34.815 15.5669 35.704 14.124 36.8702 12.9218C38.0364 11.7195 39.4515 10.787 41.0163 10.1895C42.581 9.59204 44.2575 9.34416 45.9282 9.46324C48.3834 9.44813 50.8374 9.57451 53.278 9.84176V18.3587H48.2625C44.2879 18.3587 43.5309 20.2513 43.5309 22.9957V29.0837H52.9941L51.7639 38.5469H43.5309V63.0882H59.6184C60.0741 63.0882 60.5253 62.9985 60.9462 62.8241C61.3672 62.6497 61.7497 62.3941 62.0719 62.0719C62.3941 61.7497 62.6497 61.3672 62.8241 60.9462C62.9985 60.5253 63.0882 60.0741 63.0882 59.6184V3.46985C63.0882 3.01418 62.9985 2.56298 62.8241 2.142C62.6497 1.72102 62.3941 1.3385 62.0719 1.0163C61.7497 0.694091 61.3672 0.438504 60.9462 0.264127C60.5253 0.0897507 60.0741 0 59.6184 0Z" fill="#38FFF9"/>
</svg>
