<svg width="61" height="61" viewBox="0 0 61 61" fill="none" xmlns="http://www.w3.org/2000/svg">
<path id="Vector" d="M49.3312 60.6259H59.0497C59.4019 60.6259 59.7397 60.486 59.9887 60.237C60.2378 59.988 60.3777 59.6503 60.3778 59.2981L60.3828 38.7646C60.3828 28.0324 58.0702 19.783 45.5284 19.783C40.7608 19.6057 36.2647 22.0634 33.8386 26.1673C33.8267 26.1873 33.8087 26.2028 33.7872 26.2115C33.7657 26.2202 33.7419 26.2216 33.7195 26.2156C33.6971 26.2095 33.6773 26.1963 33.6632 26.1779C33.649 26.1596 33.6412 26.1371 33.641 26.1139V22.102C33.641 21.7497 33.5011 21.4119 33.252 21.1628C33.0029 20.9138 32.6651 20.7738 32.3129 20.7738H23.0901C22.7378 20.7738 22.4 20.9138 22.1509 21.1628C21.9019 21.4119 21.7619 21.7497 21.7619 22.102V59.2961C21.7619 59.6483 21.9019 59.9861 22.1509 60.2352C22.4 60.4843 22.7378 60.6242 23.0901 60.6242H32.8079C33.1602 60.6242 33.498 60.4843 33.7471 60.2352C33.9962 59.9861 34.1361 59.6483 34.1361 59.2961V40.9105C34.1361 35.7119 35.1222 30.6773 41.5673 30.6773C47.9207 30.6773 48.003 36.626 48.003 41.2472V59.2978C48.003 59.65 48.143 59.9878 48.392 60.2369C48.6411 60.486 48.9789 60.6259 49.3312 60.6259ZM0.617188 8.14568C0.617188 12.0852 3.86014 15.3265 7.79969 15.3265C11.7382 15.3262 14.9792 12.0829 14.9792 8.14436C14.9785 4.2058 11.7372 0.964844 7.79836 0.964844C3.85848 0.964844 0.617188 4.20646 0.617188 8.14568ZM2.92779 60.6259H12.6586C13.0109 60.6259 13.3487 60.486 13.5978 60.2369C13.8468 59.9878 13.9868 59.65 13.9868 59.2978V22.102C13.9868 21.7497 13.8468 21.4119 13.5978 21.1628C13.3487 20.9138 13.0109 20.7738 12.6586 20.7738H2.92779C2.57555 20.7738 2.23774 20.9138 1.98867 21.1628C1.7396 21.4119 1.59967 21.7497 1.59967 22.102V59.2978C1.59967 59.65 1.7396 59.9878 1.98867 60.2369C2.23774 60.486 2.57555 60.6259 2.92779 60.6259Z" fill="white"/>
</svg>
