<svg width="30" height="30" viewBox="0 0 63 63" fill="none" xmlns="http://www.w3.org/2000/svg">
<path id="Vector" d="M31.5 23.9991C32.9834 23.9996 34.4334 24.44 35.6665 25.2646C36.8997 26.0891 37.8607 27.2608 38.428 28.6315C38.9953 30.0021 39.1434 31.5102 38.8537 32.9651C38.5639 34.4199 37.8493 35.7562 36.8002 36.805C35.751 37.8537 34.4145 38.5678 32.9595 38.857C31.5046 39.1462 29.9965 38.9975 28.6261 38.4297C27.2556 37.8619 26.0843 36.9005 25.2602 35.667C24.4361 34.4335 23.9963 32.9834 23.9963 31.5C23.9977 29.5106 24.7889 27.6031 26.1959 26.1967C27.6028 24.7902 29.5106 23.9998 31.5 23.9991ZM13.9627 18.2334C14.3445 17.2657 14.9211 16.3868 15.6568 15.6511C16.3924 14.9155 17.2713 14.3389 18.2391 13.957C21.1922 12.7913 28.2234 13.0528 31.5 13.0528C34.7766 13.0528 41.8008 12.7814 44.7623 13.957C45.7301 14.3389 46.609 14.9155 47.3446 15.6511C48.0803 16.3868 48.6569 17.2657 49.0387 18.2334C50.2031 21.1866 49.943 28.2248 49.943 31.4986C49.943 34.7723 50.2031 41.8022 49.0331 44.7652C48.6513 45.7329 48.0746 46.6118 47.339 47.3474C46.6034 48.0831 45.7244 48.6597 44.7567 49.0416C41.8036 50.2073 34.7723 49.9458 31.4944 49.9458C28.2164 49.9458 21.195 50.2172 18.2334 49.0416C17.2657 48.6597 16.3868 48.0831 15.6511 47.3474C14.9155 46.6118 14.3389 45.7329 13.957 44.7652C12.7828 41.812 13.0528 34.7738 13.0528 31.5C13.0528 28.2262 12.7828 21.1978 13.957 18.2348L13.9627 18.2334ZM31.5 43.0312C33.7807 43.0312 36.0101 42.355 37.9064 41.0879C39.8027 39.8208 41.2807 38.0199 42.1535 35.9128C43.0263 33.8058 43.2546 31.4872 42.8097 29.2504C42.3647 27.0135 41.2665 24.9588 39.6538 23.3462C38.0412 21.7335 35.9865 20.6353 33.7496 20.1903C31.5128 19.7454 29.1942 19.9737 27.0872 20.8465C24.9801 21.7193 23.1792 23.1973 21.9121 25.0936C20.645 26.9899 19.9687 29.2193 19.9687 31.5C19.9669 33.0148 20.2639 34.5151 20.8427 35.915C21.4216 37.3149 22.2709 38.5868 23.342 39.658C24.4132 40.7291 25.6851 41.5784 27.085 42.1573C28.4849 42.7361 29.9852 43.0331 31.5 43.0312ZM19.4934 22.1766C20.0258 22.1768 20.5464 22.0192 20.9892 21.7236C21.432 21.4281 21.7772 21.0078 21.9811 20.516C22.1851 20.0242 22.2386 19.483 22.1349 18.9608C22.0312 18.4386 21.7749 17.9588 21.3986 17.5823C21.0222 17.2057 20.5426 16.9492 20.0205 16.8453C19.4983 16.7413 18.9571 16.7945 18.4651 16.9982C17.9732 17.2019 17.5528 17.5468 17.257 17.9895C16.9612 18.4322 16.8033 18.9526 16.8033 19.485C16.8018 19.8385 16.8701 20.1889 17.0044 20.516C17.1386 20.8431 17.3361 21.1404 17.5855 21.391C17.8349 21.6416 18.1313 21.8405 18.4578 21.9763C18.7842 22.112 19.1343 22.182 19.4878 22.1822L19.4934 22.1766ZM6.75 0H56.25C58.0402 0 59.7571 0.711159 61.023 1.97703C62.2888 3.2429 63 4.95979 63 6.75V56.25C63 58.0402 62.2888 59.7571 61.023 61.023C59.7571 62.2888 58.0402 63 56.25 63H6.75C4.95979 63 3.2429 62.2888 1.97703 61.023C0.711155 59.7571 0 58.0402 0 56.25V6.75C0 4.95979 0.711155 3.2429 1.97703 1.97703C3.2429 0.711159 4.95979 0 6.75 0ZM9.1575 40.7812C9.33891 44.3855 10.1616 47.5791 12.7927 50.2031C15.4237 52.8272 18.6145 53.6667 22.2145 53.8383C25.9284 54.0478 37.0631 54.0478 40.777 53.8383C44.3813 53.6569 47.5636 52.8328 50.1989 50.2031C52.8342 47.5734 53.6625 44.3784 53.8341 40.7812C54.0436 37.0659 54.0436 25.9298 53.8341 22.2188C53.6527 18.6145 52.8398 15.4209 50.1989 12.7969C47.558 10.1728 44.3672 9.34313 40.777 9.17156C37.0631 8.96203 25.9284 8.96203 22.2145 9.17156C18.6103 9.35297 15.4181 10.177 12.7927 12.8067C10.1672 15.4364 9.32906 18.6314 9.1575 22.2356C8.94797 25.9369 8.94797 37.0631 9.1575 40.7812Z" fill="#38FFF9"/>
</svg>
