<svg width="20" height="25" viewBox="0 0 61 79" fill="none" xmlns="http://www.w3.org/2000/svg">
<path d="M53.375 29.6225C53.3857 34.3835 51.8111 39.0203 48.8864 42.8408L30.5 66.6556L12.1136 42.8408C9.96082 40.0156 8.52876 36.7347 7.93503 33.2674C7.3413 29.8002 7.60284 26.2456 8.69817 22.8956C9.79349 19.5456 11.6914 16.4958 14.2359 13.9967C16.7804 11.4976 19.8989 9.62056 23.3354 8.51967C26.7718 7.41878 30.4281 7.12549 34.0039 7.66389C37.5797 8.20229 40.9731 9.55702 43.9051 11.6168C46.8372 13.6766 49.2244 16.3827 50.8706 19.5127C52.5169 22.6428 53.3751 26.1076 53.375 29.6225ZM61 29.6225C61 36.2391 58.7684 42.3421 55.0017 47.27L35.2631 72.8278L30.5 79L25.7318 72.8278L5.99834 47.27C3.12466 43.5046 1.21174 39.1306 0.416763 34.5074C-0.378214 29.8842 -0.0325643 25.1438 1.42531 20.6756C2.88319 16.2074 5.41169 12.139 8.80305 8.80465C12.1944 5.47027 16.3519 2.9651 20.9338 1.49496C25.5157 0.0248313 30.3914 -0.368303 35.1601 0.347862C39.9289 1.06403 44.4547 2.86905 48.3656 5.61463C52.2765 8.36021 55.461 11.968 57.6574 16.1415C59.8538 20.3151 60.9993 24.9352 61 29.6225ZM30.5 39.498C33.1964 39.498 35.7823 38.4575 37.6889 36.6055C39.5955 34.7535 40.6667 32.2416 40.6667 29.6225C40.6667 27.0033 39.5955 24.4914 37.6889 22.6394C35.7823 20.7874 33.1964 19.747 30.5 19.747C27.8036 19.747 25.2177 20.7874 23.3111 22.6394C21.4045 24.4914 20.3333 27.0033 20.3333 29.6225C20.3333 32.2416 21.4045 34.7535 23.3111 36.6055C25.2177 38.4575 27.8036 39.498 30.5 39.498Z" fill="#38FFF9"/>
<path d="M53.375 29.6225C53.3857 34.3835 51.8111 39.0203 48.8864 42.8408L30.5 66.6556L12.1136 42.8408C9.96082 40.0156 8.52876 36.7347 7.93503 33.2674C7.3413 29.8002 7.60284 26.2456 8.69817 22.8956C9.79349 19.5456 11.6914 16.4958 14.2359 13.9967C16.7804 11.4976 19.8989 9.62056 23.3354 8.51967C26.7718 7.41878 30.4281 7.12549 34.0039 7.66389C37.5797 8.20229 40.9731 9.55702 43.9051 11.6168C46.8372 13.6766 49.2244 16.3827 50.8706 19.5127C52.5169 22.6428 53.3751 26.1076 53.375 29.6225ZM61 29.6225C61 36.2391 58.7684 42.3421 55.0017 47.27L35.2631 72.8278L30.5 79L25.7318 72.8278L5.99834 47.27C3.12466 43.5046 1.21174 39.1306 0.416763 34.5074C-0.378214 29.8842 -0.0325643 25.1438 1.42531 20.6756C2.88319 16.2074 5.41169 12.139 8.80305 8.80465C12.1944 5.47027 16.3519 2.9651 20.9338 1.49496C25.5157 0.0248313 30.3914 -0.368303 35.1601 0.347862C39.9289 1.06403 44.4547 2.86905 48.3656 5.61463C52.2765 8.36021 55.461 11.968 57.6574 16.1415C59.8538 20.3151 60.9993 24.9352 61 29.6225ZM30.5 39.498C33.1964 39.498 35.7823 38.4575 37.6889 36.6055C39.5955 34.7535 40.6667 32.2416 40.6667 29.6225C40.6667 27.0033 39.5955 24.4914 37.6889 22.6394C35.7823 20.7874 33.1964 19.747 30.5 19.747C27.8036 19.747 25.2177 20.7874 23.3111 22.6394C21.4045 24.4914 20.3333 27.0033 20.3333 29.6225C20.3333 32.2416 21.4045 34.7535 23.3111 36.6055C25.2177 38.4575 27.8036 39.498 30.5 39.498Z" stroke="white"/>
</svg>
