<svg width="50" height="50" viewBox="0 0 50 50" fill="none" xmlns="http://www.w3.org/2000/svg">
<g id="openmoji:flag-united-states">
<path id="Vector" d="M5 17H67V55H5V17Z" fill="white"/>
<path id="Vector_2" d="M5 17H67V22H5V17ZM5 26H67V30H5V26ZM5 34H67V38H5V34Z" fill="#D22F27"/>
<path id="Vector_3" d="M5 17H37V38H5V17Z" fill="#1E50A0"/>
<path id="Vector_4" d="M5 42H67V46H5V42Z" fill="#D22F27"/>
<path id="Vector_5" d="M9.5 23.75C10.4665 23.75 11.25 22.9665 11.25 22C11.25 21.0335 10.4665 20.25 9.5 20.25C8.5335 20.25 7.75 21.0335 7.75 22C7.75 22.9665 8.5335 23.75 9.5 23.75Z" fill="white"/>
<path id="Vector_6" d="M17.5 23.75C18.4665 23.75 19.25 22.9665 19.25 22C19.25 21.0335 18.4665 20.25 17.5 20.25C16.5335 20.25 15.75 21.0335 15.75 22C15.75 22.9665 16.5335 23.75 17.5 23.75Z" fill="white"/>
<path id="Vector_7" d="M25.5 23.75C26.4665 23.75 27.25 22.9665 27.25 22C27.25 21.0335 26.4665 20.25 25.5 20.25C24.5335 20.25 23.75 21.0335 23.75 22C23.75 22.9665 24.5335 23.75 25.5 23.75Z" fill="white"/>
<path id="Vector_8" d="M33.5 23.75C34.4665 23.75 35.25 22.9665 35.25 22C35.25 21.0335 34.4665 20.25 33.5 20.25C32.5335 20.25 31.75 21.0335 31.75 22C31.75 22.9665 32.5335 23.75 33.5 23.75Z" fill="white"/>
<path id="Vector_9" d="M29.5 27.75C30.4665 27.75 31.25 26.9665 31.25 26C31.25 25.0335 30.4665 24.25 29.5 24.25C28.5335 24.25 27.75 25.0335 27.75 26C27.75 26.9665 28.5335 27.75 29.5 27.75Z" fill="white"/>
<path id="Vector_10" d="M21.5 27.75C22.4665 27.75 23.25 26.9665 23.25 26C23.25 25.0335 22.4665 24.25 21.5 24.25C20.5335 24.25 19.75 25.0335 19.75 26C19.75 26.9665 20.5335 27.75 21.5 27.75Z" fill="white"/>
<path id="Vector_11" d="M13.5 27.75C14.4665 27.75 15.25 26.9665 15.25 26C15.25 25.0335 14.4665 24.25 13.5 24.25C12.5335 24.25 11.75 25.0335 11.75 26C11.75 26.9665 12.5335 27.75 13.5 27.75Z" fill="white"/>
<path id="Vector_12" d="M9.5 31.75C10.4665 31.75 11.25 30.9665 11.25 30C11.25 29.0335 10.4665 28.25 9.5 28.25C8.5335 28.25 7.75 29.0335 7.75 30C7.75 30.9665 8.5335 31.75 9.5 31.75Z" fill="white"/>
<path id="Vector_13" d="M17.5 31.75C18.4665 31.75 19.25 30.9665 19.25 30C19.25 29.0335 18.4665 28.25 17.5 28.25C16.5335 28.25 15.75 29.0335 15.75 30C15.75 30.9665 16.5335 31.75 17.5 31.75Z" fill="white"/>
<path id="Vector_14" d="M25.5 31.75C26.4665 31.75 27.25 30.9665 27.25 30C27.25 29.0335 26.4665 28.25 25.5 28.25C24.5335 28.25 23.75 29.0335 23.75 30C23.75 30.9665 24.5335 31.75 25.5 31.75Z" fill="white"/>
<path id="Vector_15" d="M33.5 31.75C34.4665 31.75 35.25 30.9665 35.25 30C35.25 29.0335 34.4665 28.25 33.5 28.25C32.5335 28.25 31.75 29.0335 31.75 30C31.75 30.9665 32.5335 31.75 33.5 31.75Z" fill="white"/>
<path id="Vector_16" d="M29.5 35.75C30.4665 35.75 31.25 34.9665 31.25 34C31.25 33.0335 30.4665 32.25 29.5 32.25C28.5335 32.25 27.75 33.0335 27.75 34C27.75 34.9665 28.5335 35.75 29.5 35.75Z" fill="white"/>
<path id="Vector_17" d="M21.5 35.75C22.4665 35.75 23.25 34.9665 23.25 34C23.25 33.0335 22.4665 32.25 21.5 32.25C20.5335 32.25 19.75 33.0335 19.75 34C19.75 34.9665 20.5335 35.75 21.5 35.75Z" fill="white"/>
<path id="Vector_18" d="M13.5 35.75C14.4665 35.75 15.25 34.9665 15.25 34C15.25 33.0335 14.4665 32.25 13.5 32.25C12.5335 32.25 11.75 33.0335 11.75 34C11.75 34.9665 12.5335 35.75 13.5 35.75Z" fill="white"/>
<path id="Vector_19" d="M5 50H67V55H5V50Z" fill="#D22F27"/>
<path id="Vector_20" d="M5 17H67V55H5V17Z" stroke="black" stroke-width="2" stroke-linecap="round" stroke-linejoin="round"/>
</g>
</svg>
