<svg width="83" height="77" viewBox="0 0 83 77" fill="none" xmlns="http://www.w3.org/2000/svg">
<path id="Vector" d="M53.5857 0.735935C35.0972 -2.04208 17.5899 7.81861 13.3897 22.8969L1.74499 31.86C0.294908 32.9548 1.03141 35.1826 3.09113 35.4921L10.4473 36.5974L7.80438 48.9033C6.8265 53.4565 10.4071 57.763 15.8506 58.581L20.7547 59.3178L18.1118 71.6237L52.4406 76.7818L56.5723 57.5436C69.1817 54.6958 79.2809 46.0932 81.7476 34.6078C85.1482 18.7742 72.6136 3.595 53.5857 0.735935ZM48.7991 46.5944L38.9909 45.1206L40.7529 36.9167L50.5611 38.3904L48.7991 46.5944ZM61.9536 26.5947C60.179 28.0218 58.109 28.9387 55.6907 29.5916C54.3237 30.0637 53.3403 30.6358 52.7315 31.3488C52.1316 32.0209 51.7152 33.0169 51.4421 34.2885L41.6338 32.8147C42.0743 30.7638 42.9838 29.122 44.1937 28.2029C45.3633 27.2353 47.344 26.2626 50.1446 25.2438C51.5607 24.7791 52.7667 24.1134 53.6559 23.2731C54.6432 22.4476 55.2244 21.3916 55.5063 20.079C55.7706 18.8484 55.6073 17.723 54.8919 16.8109C54.1678 15.94 52.9808 15.3382 51.4605 15.1097C50.2857 14.9111 49.0646 15.0734 48.0212 15.5669C46.9975 16.0905 46.3535 16.9677 46.0402 18.1909L36.5752 16.7687L36.5526 16.6383C37.1996 13.3904 38.9768 11.2438 41.8881 9.94521C44.8799 8.74336 48.489 8.43878 52.7555 9.07986C57.3164 9.76515 60.6937 11.2465 62.8965 13.4829C65.1482 15.7267 65.935 18.4279 65.2654 21.5454C64.8249 23.5964 63.7281 25.1676 61.9536 26.5947Z" fill="#38FFF9"/>
</svg>
